<svg xmlns="http://www.w3.org/2000/svg" version="1.1" xmlns:xlink="http://www.w3.org/1999/xlink" xmlns:svgjs="http://svgjs.dev/svgjs" width="2000" height="1247" viewBox="0 0 2000 1247"><g transform="matrix(1,0,0,1,-1.2121212121212466,0.504858299595071)"><svg viewBox="0 0 396 247" data-background-color="#ffffff" preserveAspectRatio="xMidYMid meet" height="1247" width="2000" xmlns="http://www.w3.org/2000/svg" xmlns:xlink="http://www.w3.org/1999/xlink"><g id="tight-bounds" transform="matrix(1,0,0,1,0.2400000000000091,-0.09999999999999432)"><svg viewBox="0 0 395.52 247.2" height="247.2" width="395.52"><g><svg></svg></g><g><svg viewBox="0 0 395.52 247.2" height="247.2" width="395.52"><g transform="matrix(1,0,0,1,96.16821599999999,47.215199999999996)"><svg viewBox="0 0 203.183568 152.7696" height="152.7696" width="203.183568"><g><svg viewBox="0 0 203.183568 152.7696" height="152.7696" width="203.183568"><g><svg viewBox="0 0 203.183568 152.7696" height="152.7696" width="203.183568"><g><svg viewBox="0 0 203.183568 152.7696" height="152.7696" width="203.183568"><g><svg viewBox="0 0 203.183568 152.7696" height="152.7696" width="203.183568"><g><svg viewBox="0 0 203.183568 152.7696" height="152.7696" width="203.183568"><g transform="matrix(1,0,0,1,0,0)"><svg width="203.183568" viewBox="2.25 -35 46.54999923706055 35" height="152.7696" data-palette-color="#40826d"><path d="M21.75-4.2L21.75-35 26.25-35 26.25 0 14.5 0Q9.05 0 5.65-3.48 2.25-6.95 2.25-12.25L2.25-12.25Q2.25-17.45 5.78-20.98 9.3-24.5 14.15-24.5L14.15-24.5Q17.25-24.5 19.95-23L19.95-23 19.95-18.5Q17.45-20.3 14.15-20.3L14.15-20.3Q11.15-20.3 9.08-18.07 7-15.85 7-12.25L7-12.25Q7-8.6 8.97-6.4 10.95-4.2 14.5-4.2L14.5-4.2 21.75-4.2ZM48.8 0L31 0 31-2Q31-4.4 32.07-6.58 33.15-8.75 34.77-10.4 36.4-12.05 38.07-13.5 39.75-14.95 41.27-16.55 42.8-18.15 43.35-19.6L43.35-19.6 31.05-19.6 31.05-24 48.45-24 48.45-21.55Q48.45-19.35 47.37-17.35 46.3-15.35 44.65-13.75 43-12.15 41.27-10.7 39.55-9.25 37.97-7.6 36.4-5.95 35.75-4.4L35.75-4.4 48.8-4.4 48.8 0Z" opacity="1" transform="matrix(1,0,0,1,0,0)" fill="#40826d" class="undefined-text-0" data-fill-palette-color="primary" id="text-0"></path></svg></g></svg></g></svg></g></svg></g></svg></g></svg></g></svg></g><path d="M278.47 41.215L278.47 0 31.27 0 31.27 247.2 278.47 247.2 278.47 205.985 264.693 205.985 264.693 233.423 45.046 233.423 45.046 13.777 264.693 13.777 264.693 41.215Z" fill="#40826d" stroke="transparent" data-fill-palette-color="primary"></path></svg></g><defs></defs></svg><rect width="395.52" height="247.2" fill="none" stroke="none" visibility="hidden"></rect></g></svg></g></svg>